<?xml version="1.0" encoding="UTF-8" standalone="no"?>
<!DOCTYPE svg PUBLIC "-//W3C//DTD SVG 1.1//EN"
 "http://www.w3.org/Graphics/SVG/1.1/DTD/svg11.dtd">
<!-- Generated by graphviz version 2.43.0 (0)
 -->
<!-- Title: %3 Pages: 1 -->
<svg width="194pt" height="260pt"
 viewBox="0.00 0.00 194.49 260.00" xmlns="http://www.w3.org/2000/svg" xmlns:xlink="http://www.w3.org/1999/xlink">
<g id="graph0" class="graph" transform="scale(1 1) rotate(0) translate(4 256)">
<title>%3</title>
<polygon fill="white" stroke="transparent" points="-4,4 -4,-256 190.49,-256 190.49,4 -4,4"/>
<!-- test.c -->
<g id="node1" class="node">
<title>test.c</title>
<ellipse fill="none" stroke="black" cx="93.25" cy="-234" rx="36.29" ry="18"/>
<text text-anchor="middle" x="93.25" y="-230.3" font-family="Times,serif" font-size="14.00">test.c</text>
</g>
<!-- test1.c -->
<g id="node2" class="node">
<title>test1.c</title>
<ellipse fill="none" stroke="black" cx="93.25" cy="-162" rx="42.49" ry="18"/>
<text text-anchor="middle" x="93.25" y="-158.3" font-family="Times,serif" font-size="14.00">test1.c</text>
</g>
<!-- test.c&#45;&gt;test1.c -->
<g id="edge1" class="edge">
<title>test.c&#45;&gt;test1.c</title>
<path fill="none" stroke="black" d="M93.25,-215.7C93.25,-207.98 93.25,-198.71 93.25,-190.11"/>
<polygon fill="black" stroke="black" points="96.75,-190.1 93.25,-180.1 89.75,-190.1 96.75,-190.1"/>
</g>
<!-- test2.c -->
<g id="node3" class="node">
<title>test2.c</title>
<ellipse fill="none" stroke="black" cx="42.25" cy="-90" rx="42.49" ry="18"/>
<text text-anchor="middle" x="42.25" y="-86.3" font-family="Times,serif" font-size="14.00">test2.c</text>
</g>
<!-- test1.c&#45;&gt;test2.c -->
<g id="edge2" class="edge">
<title>test1.c&#45;&gt;test2.c</title>
<path fill="none" stroke="black" d="M81.16,-144.41C74.94,-135.87 67.22,-125.28 60.31,-115.79"/>
<polygon fill="black" stroke="black" points="62.96,-113.49 54.25,-107.47 57.31,-117.61 62.96,-113.49"/>
</g>
<!-- test3.c -->
<g id="node4" class="node">
<title>test3.c</title>
<ellipse fill="none" stroke="black" cx="144.25" cy="-90" rx="42.49" ry="18"/>
<text text-anchor="middle" x="144.25" y="-86.3" font-family="Times,serif" font-size="14.00">test3.c</text>
</g>
<!-- test1.c&#45;&gt;test3.c -->
<g id="edge3" class="edge">
<title>test1.c&#45;&gt;test3.c</title>
<path fill="none" stroke="black" d="M105.33,-144.41C111.56,-135.87 119.27,-125.28 126.19,-115.79"/>
<polygon fill="black" stroke="black" points="129.19,-117.61 132.25,-107.47 123.53,-113.49 129.19,-117.61"/>
</g>
<!-- test4.c -->
<g id="node5" class="node">
<title>test4.c</title>
<ellipse fill="none" stroke="black" cx="144.25" cy="-18" rx="42.49" ry="18"/>
<text text-anchor="middle" x="144.25" y="-14.3" font-family="Times,serif" font-size="14.00">test4.c</text>
</g>
<!-- test3.c&#45;&gt;test4.c -->
<g id="edge4" class="edge">
<title>test3.c&#45;&gt;test4.c</title>
<path fill="none" stroke="black" d="M144.25,-71.7C144.25,-63.98 144.25,-54.71 144.25,-46.11"/>
<polygon fill="black" stroke="black" points="147.75,-46.1 144.25,-36.1 140.75,-46.1 147.75,-46.1"/>
</g>
</g>
</svg>
